<?xml version="1.0" standalone="no"?>
<!DOCTYPE svg PUBLIC "-//W3C//DTD SVG 20010904//EN"
 "http://www.w3.org/TR/2001/REC-SVG-20010904/DTD/svg10.dtd">
<svg version="1.0" xmlns="http://www.w3.org/2000/svg"
 width="450.000000pt" height="450.000000pt" viewBox="0 0 450.000000 450.000000"
 preserveAspectRatio="xMidYMid meet">
<metadata>
Created by potrace 1.10, written by Peter Selinger 2001-2011
</metadata>
<g transform="translate(0.000000,450.000000) scale(0.050000,-0.050000)"
fill="#000000" stroke="none">
<path d="M7100 7383 l-190 -13 -162 -480 c-89 -264 -166 -493 -170 -509 -11
-41 121 -57 481 -59 363 -2 373 41 15 60 l-224 11 210 4 c249 4 298 15 295 62
-2 19 -13 35 -24 35 -99 -1 -131 9 -131 41 -1 30 -3 31 -20 5 -15 -23 -19 -18
-20 25 0 30 9 55 20 55 11 0 20 10 20 21 0 12 -8 16 -18 10 -11 -6 -23 4 -28
24 -5 19 -11 -10 -12 -65 -5 -193 -61 -252 -62 -65 0 41 -9 75 -20 75 -11 0
-20 -13 -20 -28 0 -15 -14 -33 -31 -40 -17 -6 -26 -21 -19 -32 7 -11 3 -20 -9
-20 -11 0 -21 14 -21 30 0 32 -41 32 -65 0 -8 -11 -15 -5 -15 14 0 18 8 38 17
44 10 6 15 36 11 67 -4 30 -2 39 4 20 6 -20 20 -30 30 -23 13 7 11 23 -4 40
-19 23 -18 40 1 77 14 26 20 57 12 69 -7 12 -6 22 4 22 9 0 18 32 19 70 4 138
-26 65 -81 -195 -31 -146 -57 -284 -59 -308 -2 -24 -12 -38 -21 -32 -38 23
109 737 176 862 39 72 40 13 1 -97 -40 -114 -40 -161 -1 -109 29 38 30 37 30
-9 1 -59 11 -51 29 23 9 40 5 55 -16 55 -18 0 -25 14 -18 40 11 40 11 40 46
-1 26 -29 39 -34 46 -15 7 17 11 15 12 -7 1 -19 -9 -37 -23 -42 -19 -7 -18
-21 4 -64 34 -62 35 -60 48 89 9 96 20 166 34 200 2 6 10 -17 17 -50 9 -38 25
-57 43 -53 93 22 99 21 99 -28 0 -27 0 -56 0 -64 0 -8 -23 -16 -50 -17 -61 -2
-92 -27 -38 -30 21 -2 44 -2 51 -1 7 1 9 -14 4 -34 -6 -20 4 -48 22 -62 17
-14 31 -47 31 -73 0 -27 10 -48 22 -48 13 0 18 28 11 75 -28 196 -36 385 -15
385 12 0 22 -24 22 -53 0 -50 4 -52 90 -42 81 9 94 4 88 -38 -1 -7 10 -19 23
-28 31 -19 4 -64 -27 -46 -13 7 -17 6 -8 -4 60 -67 86 -14 56 116 -10 42 -10
80 -1 86 25 15 79 -122 81 -208 2 -40 7 -55 11 -33 18 77 27 92 49 79 16 -10
16 -18 1 -27 -28 -17 -5 -107 25 -96 12 5 39 -14 61 -42 21 -28 29 -45 19 -39
-11 7 -19 -5 -19 -25 0 -20 7 -33 15 -27 9 5 16 -1 16 -13 0 -12 8 -17 18 -11
11 6 23 -4 28 -24 7 -27 10 -24 12 10 1 25 -7 45 -17 45 -11 0 -15 12 -9 27 6
15 -8 85 -29 155 -63 201 -70 230 -48 208 29 -30 195 -548 235 -735 26 -121 3
-159 -33 -55 -16 46 -33 60 -74 60 -37 -1 -45 -6 -26 -18 18 -11 20 -21 6 -30
-12 -8 -43 0 -69 17 -58 38 -74 24 -74 -67 0 -40 -9 -85 -20 -102 -15 -24 -19
-24 -20 -2 0 21 -22 24 -104 13 -177 -23 -182 -50 -11 -50 l155 -1 0 -128 c0
-89 -9 -135 -30 -152 -62 -51 19 -134 89 -91 29 18 26 90 -4 102 -17 6 -23 48
-18 136 l6 127 220 13 c257 14 262 16 226 88 -34 70 -324 825 -360 940 -5 16
-50 25 -133 25 -69 0 -211 4 -316 8 -104 4 -275 1 -380 -5z m840 -1003 c0 -33
-97 -34 -106 -1 -6 26 3 32 49 25 31 -5 57 -15 57 -24z"/>
<path d="M3155 7230 c-405 -149 -584 -618 -380 -996 260 -480 964 -475 1226 9
295 544 -268 1199 -846 987z m465 -133 c369 -159 459 -656 171 -941 -227 -223
-585 -222 -811 4 -452 452 52 1189 640 937z"/>
<path d="M3529 6999 c-7 -11 -30 -15 -51 -9 -30 10 -35 5 -24 -22 10 -26 5
-32 -19 -23 -18 7 -43 0 -56 -16 -13 -16 -36 -29 -51 -29 -17 0 -22 -12 -14
-33 8 -22 4 -30 -14 -24 -15 5 -61 -26 -101 -69 -48 -51 -84 -74 -100 -63 -16
10 -20 7 -11 -8 8 -13 1 -29 -17 -35 -17 -7 -31 -24 -31 -39 0 -14 -23 -44
-52 -67 -28 -22 -46 -49 -40 -59 7 -11 1 -24 -13 -29 -14 -4 -19 -15 -11 -24
19 -20 636 521 636 558 0 19 -16 14 -31 -9z"/>
<path d="M3617 6865 c-37 -30 -107 -91 -157 -136 -49 -46 -153 -139 -230 -209
-199 -179 -286 -302 -171 -241 50 27 71 -4 40 -60 -45 -84 -1 -54 273 185 402
354 446 399 397 417 -21 8 -47 9 -57 3 -10 -5 -12 0 -5 12 8 11 4 27 -7 34
-11 7 -15 21 -9 31 20 33 -6 20 -74 -36z"/>
<path d="M3678 6428 c-277 -252 -359 -333 -349 -344 6 -6 27 5 47 23 21 18 48
33 61 33 12 0 23 9 23 20 0 11 14 20 30 20 17 0 30 9 30 20 0 11 13 20 28 20
31 0 237 191 258 240 7 17 28 50 46 75 64 88 -9 43 -174 -107z"/>
<path d="M7949 6710 c22 -119 56 -162 41 -50 -7 50 -22 99 -33 110 -16 14 -18
-4 -8 -60z"/>
<path d="M7694 6646 c-9 -13 -10 -49 -3 -80 8 -38 6 -47 -7 -29 -15 22 -20 21
-29 -2 -16 -40 -137 -63 -160 -30 -11 16 -15 8 -11 -25 5 -39 -4 -51 -39 -56
l-45 -7 0 -2228 0 -2229 -267 0 c-353 0 -393 -8 -393 -82 0 -43 11 -59 45 -66
93 -20 756 -30 1035 -16 l290 14 6 62 c8 82 -14 87 -371 88 l-284 0 -1 2136
c0 1174 5 2178 13 2231 l13 95 137 -14 c76 -7 137 -5 136 4 -4 76 -53 253 -65
234z"/>
<path d="M5470 6385 c-22 -5 -65 -28 -97 -50 -42 -30 -76 -37 -134 -29 -156
20 -244 -169 -139 -296 14 -17 28 -60 31 -96 25 -310 84 -544 147 -583 38 -23
24 -47 -36 -61 -90 -19 -226 -115 -396 -277 -199 -189 -550 -405 -719 -442
l-63 -13 -54 161 c-29 88 -60 165 -69 171 -34 21 -867 112 -881 97 -16 -18
259 -787 298 -834 18 -23 7 -30 -59 -41 -151 -24 -214 -129 -645 -1087 -272
-604 -469 -856 -699 -896 -96 -16 -113 -46 -54 -94 40 -32 565 -45 653 -16 45
15 60 73 51 197 -14 196 13 235 82 118 29 -50 89 -122 134 -161 l82 -69 -133
-75 c-108 -60 -161 -77 -272 -84 -101 -8 -138 -18 -138 -38 0 -46 79 -187 105
-189 14 0 159 -3 323 -5 355 -4 379 6 369 139 -9 103 -1 105 139 38 319 -154
902 -249 1529 -250 340 0 366 6 296 69 -54 49 -170 67 -506 82 -156 7 -300 21
-320 32 -19 10 -35 11 -35 3 0 -9 -9 -2 -20 14 -12 18 -20 20 -20 6 0 -13 -18
-22 -40 -21 -22 2 -40 10 -40 18 0 7 -31 11 -70 8 -38 -3 -70 1 -70 8 0 8 -20
13 -45 13 -29 -1 -43 8 -39 26 5 24 1 25 -26 2 -20 -16 -39 -20 -47 -9 -14 20
-44 27 -171 37 -47 4 -90 22 -105 43 -20 27 -27 29 -27 8 0 -17 -7 -21 -15 -9
-15 19 -31 25 -115 41 -86 17 -115 86 -58 139 32 30 46 58 37 74 -9 14 -8 19
1 11 9 -8 29 3 44 25 16 22 42 40 59 40 21 0 27 11 19 33 -11 27 -8 29 18 7
27 -23 39 -14 32 25 -1 8 16 16 38 18 22 1 51 4 65 6 14 2 36 -5 50 -15 14
-10 25 -13 25 -5 0 8 14 0 31 -18 28 -28 70 -40 114 -33 8 1 48 -17 88 -40 41
-23 103 -43 138 -45 37 -2 60 -12 55 -25 -4 -13 17 -23 52 -24 33 0 77 -11 99
-23 22 -11 57 -21 77 -21 20 0 63 -14 96 -31 32 -17 76 -27 96 -22 20 6 64 1
97 -11 43 -15 66 -15 83 2 29 29 54 28 54 -3 0 -15 27 -25 70 -25 39 0 70 7
70 15 0 8 47 15 105 15 71 1 121 13 153 38 47 36 44 37 -250 35 -383 -3 -709
80 -1225 310 l-127 57 -84 -81 c-47 -44 -105 -95 -130 -112 -25 -17 -86 -96
-136 -174 -101 -157 -161 -219 -198 -205 -14 5 -30 -5 -37 -22 -6 -18 -18 -26
-25 -19 -7 7 -22 4 -35 -6 -34 -28 -131 -41 -131 -18 0 11 18 26 40 31 31 8
36 17 19 37 -16 19 -8 38 32 75 46 42 49 52 24 76 -26 24 -17 46 64 168 51 77
111 176 132 220 22 44 46 83 54 87 8 3 15 19 15 35 0 15 8 28 18 28 69 0 26
66 -90 139 -157 98 -128 99 -216 -14 -179 -231 -343 -372 -365 -315 -11 30
100 267 138 292 10 7 17 18 15 26 -7 26 38 132 56 132 10 0 14 24 8 53 -8 43
-4 51 22 41 18 -7 39 -2 46 10 9 13 5 17 -9 8 -13 -8 -23 -9 -23 -2 0 29 108
230 123 230 9 0 15 11 12 25 -3 14 8 22 23 19 23 -5 24 0 5 23 -19 23 -18 35
6 59 17 17 31 43 31 59 0 15 9 36 19 46 11 11 23 40 27 64 3 24 13 50 20 58 8
7 14 30 14 50 0 21 15 38 35 39 21 1 25 5 10 11 -14 6 -20 19 -13 30 7 12 20
12 36 -1 18 -15 23 -6 22 34 -2 35 18 73 54 108 32 30 59 62 61 70 2 9 16 13
31 10 16 -4 22 3 15 15 -8 12 0 26 16 33 17 6 26 24 20 40 -6 15 -1 28 11 28
12 0 20 11 17 25 -3 16 19 25 60 26 69 1 116 28 53 31 -23 1 -28 5 -12 12 21
8 19 19 -8 48 -19 21 -26 38 -16 38 10 0 8 7 -5 15 -31 20 -53 165 -26 165 12
0 16 -8 10 -18 -6 -10 12 -23 39 -30 28 -7 50 -26 50 -41 0 -16 10 -35 23 -43
14 -9 18 -5 9 9 -14 22 22 32 83 24 14 -1 25 6 25 16 0 10 17 23 39 28 50 14
50 126 -1 177 -79 79 -161 80 -241 3 l-73 -69 -34 51 c-19 29 -35 75 -37 103
-2 27 -11 50 -21 50 -10 0 -13 6 -6 13 8 7 5 24 -7 38 -14 17 -11 28 10 36 17
6 31 3 31 -8 0 -22 44 -17 63 9 7 9 24 10 39 1 14 -9 54 -19 87 -23 150 -16
203 -24 236 -36 30 -12 182 -203 182 -230 1 -5 17 -28 37 -49 36 -39 32 -107
-8 -133 -11 -7 -5 -26 12 -43 24 -24 25 -34 7 -42 -15 -6 -11 -10 10 -11 19
-1 35 -10 35 -20 0 -37 194 -156 275 -169 50 -8 85 -6 85 5 0 25 77 50 140 46
45 -3 46 -2 10 14 -37 16 -37 19 -5 32 20 8 47 5 60 -6 34 -27 126 -18 120 12
-3 13 12 24 33 24 21 0 42 11 47 25 5 16 70 29 187 36 98 6 315 33 482 59
l304 47 47 202 46 201 179 0 c133 0 198 -9 249 -35 87 -45 94 -36 122 144 46
293 -3 457 -143 485 -37 7 -147 28 -243 46 l-175 32 -45 -52 c-48 -56 -257
-136 -306 -117 -48 18 -33 84 26 116 63 35 145 102 145 119 0 25 -46 11 -87
-27 -137 -124 -164 -141 -215 -141 -79 0 -89 32 -18 57 82 29 82 86 0 70 -37
-7 -72 -2 -93 16 -30 24 -28 28 25 40 105 22 148 19 136 -11 -6 -15 -1 -34 11
-41 11 -7 21 -3 21 10 0 18 7 18 28 0 24 -19 27 -16 19 13 -5 20 -58 63 -118
96 -94 50 -109 67 -111 119 -2 59 -2 59 -17 11 -13 -42 -17 -45 -28 -15 -29
78 -31 95 -12 95 10 0 19 14 19 30 0 17 -10 30 -22 30 -13 0 -18 18 -12 40 6
24 -9 69 -38 111 l-48 70 55 21 c30 12 123 27 207 32 165 12 177 4 178 -128 0
-25 19 -62 42 -84 35 -32 40 -53 30 -111 -19 -101 21 -91 67 16 40 94 89 127
134 91 35 -30 34 -81 -2 -129 -17 -22 -30 -64 -30 -94 -1 -33 -12 -55 -29 -55
-15 0 -42 -22 -60 -49 -28 -43 -28 -48 -2 -38 21 8 27 2 19 -18 -13 -34 40
-84 70 -66 12 8 21 45 21 83 0 46 23 102 69 170 174 252 123 566 -104 639 -41
13 -112 46 -157 72 -82 47 -103 51 -178 32z m530 -1164 c0 -10 -20 -52 -43
-92 -24 -41 -58 -147 -76 -236 -21 -105 -41 -161 -57 -158 -13 3 -24 -15 -24
-40 -1 -37 -4 -40 -22 -15 -17 24 -19 21 -11 -15 5 -25 -4 -73 -20 -105 -16
-33 -23 -70 -15 -83 9 -14 5 -18 -9 -9 -13 8 -23 4 -23 -8 0 -13 -11 -16 -25
-7 -20 11 -20 8 -1 -15 25 -31 21 -34 -94 -44 -27 -2 -57 -14 -65 -27 -8 -12
-48 -23 -90 -24 -41 -1 -106 -11 -143 -22 -37 -11 -75 -16 -83 -10 -9 5 -20
-2 -26 -16 -7 -19 -15 -18 -31 5 -12 17 -22 23 -22 14 0 -8 -19 -5 -42 7 -26
14 -38 15 -30 2 7 -11 3 -26 -8 -33 -12 -7 -19 -6 -17 4 2 9 -2 39 -9 66 -14
53 -36 302 -37 420 -1 98 39 198 64 159 15 -24 18 -23 19 8 0 20 18 41 40 47
22 6 40 19 40 28 0 10 14 18 30 18 17 0 30 8 30 18 0 21 51 44 113 52 24 3 62
12 85 19 27 9 42 5 42 -10 0 -14 17 -19 40 -13 22 6 44 3 50 -6 5 -9 43 -8 84
1 40 9 81 12 90 6 9 -5 47 9 84 32 37 22 80 41 97 41 17 0 41 14 55 30 28 34
60 40 60 11z m196 -58 c3 -10 23 -14 45 -9 22 6 39 1 39 -13 0 -13 7 -19 16
-14 9 6 17 -7 19 -29 2 -25 -6 -34 -21 -25 -17 9 -16 5 1 -14 35 -37 32 -208
-3 -238 -21 -17 -58 -18 -131 -5 -57 11 -107 11 -113 1 -20 -32 -48 -17 -51
28 -2 41 -3 41 -11 4 -13 -67 -86 -102 -86 -41 0 83 75 294 123 345 45 49 158
55 173 10z m-1341 -421 l42 -56 -40 -147 c-22 -81 -46 -197 -54 -258 -11 -82
-22 -109 -44 -104 -142 37 -319 4 -319 -58 0 -55 -253 29 -268 90 -6 26 -17
62 -24 79 -9 24 1 32 42 32 171 0 695 243 617 287 -80 44 -91 69 -67 142 26
78 53 77 115 -7z m-1152 -260 c64 -62 40 -107 -53 -97 -96 11 -129 36 -130
100 0 35 146 33 183 -3z m669 -425 c12 -9 28 -10 36 -2 8 7 9 0 2 -17 -12 -31
-190 30 -190 66 0 16 118 -21 152 -47z m-1339 -1366 c-7 -19 8 -32 48 -41 62
-14 75 -46 35 -86 -19 -19 -18 -24 3 -24 15 0 22 -6 15 -13 -7 -7 -27 -1 -44
13 -27 22 -29 16 -21 -48 5 -40 3 -70 -5 -66 -8 5 -41 -24 -74 -63 -33 -39
-47 -63 -32 -54 19 12 24 10 14 -6 -20 -33 -72 -29 -72 6 0 16 -10 35 -23 43
-14 9 -18 5 -9 -9 9 -15 3 -18 -18 -10 -18 7 -28 25 -22 40 6 15 1 27 -11 27
-15 0 -15 9 1 28 15 17 18 51 10 85 -14 54 -12 55 23 27 20 -16 30 -20 23 -7
-8 13 5 44 28 70 22 26 36 36 29 23 -6 -13 -3 -29 9 -36 11 -7 20 6 20 27 0
22 14 54 31 72 40 39 57 40 42 2z"/>
<path d="M5385 5787 c-55 -22 -20 -47 65 -47 67 0 90 8 90 30 0 30 -97 40
-155 17z"/>
<path d="M5412 5705 c-7 -6 -12 -29 -12 -50 0 -47 67 -40 76 8 6 32 -42 64
-64 42z"/>
<path d="M6260 5644 c-143 -48 -187 -73 -282 -158 -102 -93 -93 -127 22 -81
40 16 242 81 280 90 137 33 400 15 400 -27 0 -15 12 -22 29 -16 16 7 40 -7 55
-30 14 -23 37 -42 51 -42 22 0 33 -26 20 -48 -6 -11 110 -112 128 -112 64 0
83 -784 29 -1192 -128 -971 -329 -1414 -740 -1626 -73 -38 -132 -76 -132 -85
0 -34 154 -4 219 42 38 27 62 38 53 25 -23 -39 -2 -28 61 31 33 30 97 88 142
128 46 40 77 78 71 85 -7 6 1 12 17 12 17 0 31 11 31 25 1 14 25 70 55 125
l53 100 -9 -110 c-10 -130 -29 -185 -58 -167 -13 8 -15 4 -6 -11 8 -13 2 -39
-12 -57 -16 -20 -18 -27 -3 -19 14 9 12 -9 -8 -47 -17 -34 -42 -67 -57 -72
-15 -6 -22 -23 -16 -39 6 -15 1 -28 -11 -28 -12 0 -22 -9 -22 -20 0 -35 -105
-140 -126 -126 -11 7 -15 4 -8 -7 6 -11 -15 -41 -47 -68 -33 -27 -62 -45 -64
-41 -6 9 -155 -137 -155 -151 0 -5 -19 -29 -41 -53 -68 -73 3 -67 174 14 527
251 804 949 840 2122 39 1282 -285 1850 -933 1634z"/>
<path d="M1442 5632 c-22 -26 -129 -438 -182 -699 l-24 -117 -43 41 c-24 22
-92 63 -153 91 l-110 51 -10 -84 c-11 -94 -29 -83 -50 30 -32 167 -140 79
-125 -100 17 -213 435 -772 595 -797 64 -11 80 -22 88 -65 9 -47 20 -326 14
-370 -1 -9 -60 35 -132 98 -104 91 -132 107 -142 81 -17 -44 -48 -40 -48 6 0
21 -56 86 -129 150 -71 62 -148 144 -171 183 -24 38 -51 65 -60 59 -10 -6 -23
8 -30 30 -15 48 -61 53 -78 7 -18 -47 6 -158 45 -200 18 -20 130 -151 247
-290 118 -139 250 -283 292 -320 51 -44 89 -101 111 -166 42 -125 42 -126 -12
-77 -150 138 -420 169 -472 56 -61 -134 19 -240 180 -240 69 0 125 -13 156
-35 68 -48 152 -45 188 6 21 31 32 35 39 15 6 -14 12 -1 12 29 1 31 -6 71 -16
90 -9 19 -31 83 -49 142 l-31 107 68 70 c60 62 67 81 67 180 0 60 5 115 12
121 6 7 10 -100 8 -237 -2 -181 -7 -224 -18 -158 -11 73 -14 58 -14 -83 0
-196 11 -227 73 -208 46 15 55 -23 22 -99 -16 -37 -17 -36 -20 10 -3 46 -4 46
-19 10 -16 -40 -16 -40 -26 0 -9 34 -11 32 -13 -10 -2 -40 -7 -44 -22 -20 -17
26 -19 25 -20 -5 0 -29 -19 -35 -109 -35 -60 0 -113 -8 -119 -17 -15 -25 275
-43 447 -29 121 10 145 7 137 -16 -24 -74 -391 -106 -555 -49 l-83 30 -69
-144 c-215 -448 128 -816 631 -675 59 16 80 40 134 145 125 245 127 317 15
565 -25 55 -48 118 -52 140 -6 32 -27 42 -107 50 -98 10 -100 11 -106 82 l-6
72 124 13 c203 21 438 229 438 387 0 71 -21 84 -60 36 -38 -46 -62 -36 -48 21
12 48 9 50 -45 37 -58 -14 -288 -91 -352 -118 -28 -11 -35 -4 -35 33 1 101 23
131 141 188 135 64 179 106 299 289 148 224 254 337 341 363 96 28 99 46 15
75 -55 20 -69 17 -111 -23 l-48 -45 14 56 c26 106 -132 70 -163 -36 -23 -79
-23 -79 -38 -25 -42 160 -321 -182 -381 -468 -62 -297 -60 -93 4 293 50 307
57 321 195 398 141 79 148 91 312 463 132 298 146 395 80 559 l-24 60 -30
-100 c-41 -141 -66 -157 -66 -44 0 111 -5 112 -125 33 -96 -63 -203 -182 -277
-308 -53 -90 -77 -67 -78 79 -1 55 -10 141 -21 190 -33 148 -34 150 -81 108
-41 -37 -42 -37 -28 37 16 82 -55 112 -108 47z m63 -314 c-9 -60 -15 -148 -13
-198 18 -406 -12 -741 -40 -438 -16 184 -2 482 31 655 26 137 44 122 22 -19z
m635 -30 c0 -21 -64 -148 -80 -158 -11 -7 -20 -26 -20 -43 0 -16 -14 -44 -31
-61 -17 -17 -26 -44 -20 -60 6 -15 2 -23 -8 -17 -10 7 -37 -30 -60 -81 -50
-112 -49 -108 -6 -109 27 -1 25 -5 -9 -19 -24 -10 -60 -48 -79 -84 -34 -65
-35 -65 -46 -18 -11 43 -14 44 -39 15 -42 -51 -60 -21 -40 66 10 44 16 95 15
115 -14 165 3 237 57 242 30 2 89 27 130 54 42 28 76 46 76 40 0 -6 18 -2 40
10 22 12 40 42 40 66 0 32 12 45 40 45 22 0 40 -1 40 -3z m-1130 -563 c67 -84
74 -89 65 -41 -5 30 -1 50 9 44 10 -6 39 3 66 20 l48 32 -9 -74 c-9 -71 -29
-118 -29 -68 0 17 -10 15 -31 -6 -34 -34 -23 -72 21 -72 21 0 46 57 59 140 13
75 47 81 101 17 116 -138 147 -275 64 -277 -9 0 -10 -11 -1 -25 9 -16 1 -14
-21 4 -28 23 -38 23 -51 3 -12 -19 -18 -18 -28 6 -6 18 -22 32 -34 32 -12 0
-6 -25 14 -60 37 -63 59 -75 71 -39 4 12 7 -15 7 -60 l0 -82 -36 46 c-20 25
-65 86 -99 135 -35 50 -68 95 -75 100 -6 6 -20 25 -31 42 -11 18 -54 81 -95
140 -68 98 -88 138 -68 138 4 0 41 -43 83 -95z m670 -150 c0 -14 13 -50 30
-81 25 -49 25 -66 0 -130 -41 -104 -64 -274 -92 -660 -23 -313 -37 -384 -80
-384 -10 0 -18 109 -18 242 0 133 -10 372 -23 531 l-23 289 61 64 c33 35 71
84 83 109 25 49 62 60 62 20z m-202 -560 c-2 -72 -4 -77 -18 -35 -23 72 -23
120 0 120 11 0 19 -38 18 -85z m330 -706 c-32 -28 -103 -83 -158 -123 -122
-88 -66 -17 77 97 107 85 173 107 81 26z m-311 -672 c76 -4 82 -8 51 -31 -45
-33 -68 -32 -117 5 -43 33 -79 39 -62 10 6 -10 1 -25 -12 -33 -14 -8 -18 -6
-10 8 8 11 3 28 -10 36 -17 10 -13 19 14 29 22 7 44 6 50 -3 5 -9 49 -18 96
-21z m183 -32 c0 -16 10 -21 25 -12 17 10 16 4 -2 -19 -16 -19 -43 -33 -60
-33 -26 2 -25 5 6 17 27 11 31 19 14 30 -14 9 -39 10 -57 3 -25 -9 -27 -6 -9
15 29 36 83 35 83 -1z m-250 -25 c-7 -11 6 -20 28 -20 22 0 45 -9 52 -20 16
-26 -150 -26 -190 0 -24 16 -21 19 15 20 25 0 45 9 45 20 0 11 14 20 31 20 17
0 26 -9 19 -20z m378 -92 c-70 -19 -73 -23 -37 -44 34 -20 32 -22 -21 -13 -67
11 -104 -6 -110 -51 -10 -66 1 -72 135 -66 129 5 132 4 75 -22 -33 -16 -67
-24 -75 -19 -25 15 -97 -14 -84 -34 6 -11 -9 -19 -35 -19 -37 1 -40 4 -16 20
21 14 -11 19 -106 20 -103 0 -133 -6 -122 -25 11 -20 8 -20 -13 0 -18 17 -34
18 -51 4 -17 -14 -29 -14 -37 0 -8 12 -29 22 -47 22 -19 1 -70 19 -114 39
l-80 36 170 -6 c94 -3 170 -8 170 -10 0 -2 29 -6 65 -10 44 -5 65 2 65 19 0
34 -65 51 -106 28 -18 -10 -36 -10 -43 1 -6 10 -29 14 -51 8 -22 -6 -40 -1
-40 11 0 12 23 28 50 35 28 7 50 21 50 32 0 11 -14 15 -31 9 -25 -10 -242 33
-261 52 -3 3 171 6 386 5 315 0 376 -4 314 -22z m-271 -291 c247 -2 259 -6
142 -37 -50 -14 -75 -30 -67 -44 9 -13 5 -17 -8 -8 -13 8 -43 3 -66 -9 -36
-19 -57 -15 -122 21 -43 24 -96 39 -117 34 -22 -6 -34 -2 -28 8 6 10 1 18 -11
18 -14 0 -12 10 4 28 14 15 31 19 38 9 6 -10 112 -19 235 -20z"/>
<path d="M1423 2450 c15 -15 196 -18 210 -3 8 7 -39 13 -103 13 -64 0 -112 -4
-107 -10z"/>
<path d="M3606 4017 c62 -81 114 -218 114 -300 0 -80 29 -71 84 26 77 139 141
174 228 128 160 -87 238 -223 262 -454 l11 -113 307 -14 c410 -20 412 -19 615
166 94 85 209 173 256 196 48 24 155 75 237 114 83 39 194 103 248 142 l99 70
-319 -11 c-227 -8 -372 -2 -508 19 -119 18 -207 23 -236 12 -72 -28 -148 -22
-273 22 -81 27 -109 31 -93 12 12 -14 95 -47 183 -72 148 -43 197 -68 174 -92
-55 -55 -1142 104 -1407 206 -27 10 -23 -4 18 -57z m1724 -99 c88 -21 170 -52
182 -68 12 -17 33 -30 45 -30 17 0 16 -12 -2 -45 -14 -25 -26 -48 -28 -51 -1
-3 -49 22 -106 55 -57 34 -175 86 -263 116 -269 93 -175 106 172 23z m-149
-179 c22 -11 39 -31 39 -45 0 -40 -156 -179 -182 -163 -14 9 -19 7 -11 -6 7
-11 -1 -32 -17 -45 -23 -19 -30 -19 -30 -1 0 15 -11 12 -32 -8 -37 -38 -371
-32 -445 8 -50 26 -86 98 -98 199 l-8 67 216 -10 c120 -6 258 -3 307 5 135 23
218 22 261 -1z"/>
<path d="M6290 4040 c-36 -9 42 -15 200 -16 143 0 285 -10 315 -22 32 -12 55
-13 55 -2 0 51 -410 80 -570 40z"/>
<path d="M6030 3619 c193 -64 447 -183 529 -250 93 -75 166 -115 157 -86 -24
70 -432 305 -635 365 -203 60 -247 35 -51 -29z"/>
<path d="M5304 3135 c-11 -14 -27 -58 -34 -99 -8 -41 -27 -85 -42 -98 -42 -34
-35 -164 12 -223 27 -35 40 -82 40 -148 1 -53 28 -196 60 -317 78 -286 77
-302 -19 -384 -100 -85 -131 -182 -91 -279 26 -61 23 -75 -13 -70 -152 20
-477 -72 -517 -147 -54 -101 17 -221 83 -139 128 157 225 181 599 150 513 -44
635 14 708 334 77 336 -22 553 -401 882 l-53 46 53 56 c118 123 128 272 15
207 -52 -29 -70 -31 -99 -11 -19 13 -68 42 -107 64 -50 27 -83 65 -105 120
-34 85 -54 98 -89 56z m173 -369 c-14 -16 -6 -31 26 -48 45 -23 45 -25 7 -40
-22 -8 -29 -16 -16 -17 14 0 20 -14 13 -31 -6 -17 0 -30 13 -30 15 0 20 -16
14 -40 -6 -22 -3 -40 6 -40 20 0 240 -223 240 -244 0 -9 14 -16 30 -16 17 0
30 -18 30 -41 0 -23 9 -36 20 -29 18 11 29 -15 22 -55 -1 -8 6 -15 17 -15 10
0 15 -18 11 -40 -4 -22 0 -40 10 -40 9 0 15 -49 14 -110 -2 -60 -11 -110 -20
-110 -9 0 -11 -9 -5 -19 7 -11 0 -49 -16 -85 -33 -78 -133 -178 -133 -134 -1
23 -3 24 -18 0 -10 -15 -26 -22 -36 -16 -10 7 -43 0 -71 -15 -45 -23 -56 -23
-76 1 -13 15 -39 28 -56 28 -29 -1 -29 -3 -3 -22 23 -16 18 -17 -20 -7 -65 18
-99 51 -64 64 20 7 19 15 -6 33 -33 24 -23 92 13 92 11 0 14 9 7 20 -7 11 -3
20 9 20 11 0 21 14 21 31 0 16 13 35 28 41 15 6 23 27 18 47 -6 25 5 39 37 48
46 12 46 12 7 44 -22 18 -29 27 -16 20 13 -6 29 -3 36 9 7 11 -5 20 -27 20
-36 0 -38 7 -21 69 15 53 10 95 -20 185 -22 65 -37 141 -34 171 4 30 0 50 -7
46 -7 -5 -25 10 -39 33 -24 38 -22 40 26 28 51 -12 51 -12 18 28 -19 22 -47
40 -61 40 -21 0 -21 9 -4 42 18 33 17 39 -1 28 -17 -11 -21 -3 -11 26 7 22 3
47 -9 54 -16 10 -15 21 1 41 19 24 30 22 69 -7 32 -23 40 -41 27 -58z"/>
<path d="M3462 2974 c-1 -19 -13 -40 -27 -45 -29 -11 -40 -109 -12 -109 11 0
15 7 9 16 -5 9 3 42 20 74 16 31 25 66 20 78 -5 12 -10 6 -10 -14z"/>
<path d="M6950 2225 c38 -36 139 -55 119 -23 -6 10 -2 18 10 18 11 0 21 -10
21 -21 0 -27 141 -16 142 11 1 29 -74 46 -210 48 -114 2 -117 1 -82 -33z"/>
<path d="M7620 2161 c0 -17 261 -67 275 -53 11 11 -35 23 -180 50 -52 9 -95
11 -95 3z"/>
<path d="M833 2009 c-395 -160 -328 -353 167 -480 72 -18 148 -41 170 -49 71
-29 588 -117 930 -159 677 -83 2547 -160 2454 -101 -60 38 -270 63 -509 60
-124 -1 -225 5 -225 14 0 9 -47 14 -103 11 -59 -2 -117 6 -134 20 -22 18 -27
18 -17 1 8 -13 6 -29 -6 -36 -11 -7 -20 -5 -20 4 0 9 -56 17 -125 19 -69 1
-157 5 -196 9 -38 3 -81 -1 -93 -8 -13 -8 -29 -5 -36 6 -7 11 -22 15 -33 8
-12 -7 -42 -1 -69 13 -39 21 -57 21 -95 0 -35 -18 -59 -19 -88 -4 -22 12 -72
16 -112 10 -40 -7 -73 -4 -73 6 0 11 -22 19 -50 19 -27 0 -50 -7 -50 -16 0 -9
-14 -16 -30 -16 -17 0 -28 11 -25 25 3 16 -15 22 -52 18 -44 -5 -54 0 -41 20
12 21 10 22 -13 4 -38 -30 -224 -11 -205 21 8 12 -1 10 -18 -4 -21 -17 -37
-19 -45 -6 -7 12 -40 15 -75 8 -56 -11 -61 -8 -48 26 11 30 9 33 -10 14 -14
-14 -48 -19 -84 -12 -47 10 -57 6 -44 -14 11 -17 8 -21 -7 -12 -13 8 -19 22
-14 31 6 9 -12 21 -39 26 -27 5 -44 2 -38 -8 6 -9 -26 -17 -71 -17 -44 0 -81
10 -81 21 0 12 -10 15 -21 8 -12 -7 -39 3 -60 22 -22 20 -45 29 -52 22 -8 -7
-3 -13 11 -13 13 0 18 -10 11 -21 -9 -14 -25 -11 -47 10 -19 17 -61 33 -94 35
-32 2 -75 15 -96 29 -25 16 -50 19 -72 7 -46 -25 -118 -17 -107 11 5 14 -10
24 -37 24 -99 0 -116 6 -116 40 -1 30 -3 31 -20 5 -13 -20 -19 -22 -20 -5 0
14 -23 25 -52 25 -38 0 -49 8 -41 30 7 17 1 28 -13 25 -13 -3 -21 7 -18 22 4
19 -6 24 -30 15 -31 -10 -31 -8 3 18 21 16 31 30 22 30 -9 0 -4 14 10 31 14
17 37 26 51 21 13 -5 30 4 37 21 6 17 24 26 40 20 20 -8 25 -1 17 21 -10 26
-3 30 43 18 41 -10 62 -5 82 22 73 96 5 109 -178 35z"/>
<path d="M8140 2030 c14 -16 36 -30 50 -30 14 0 36 -13 49 -29 13 -16 38 -23
56 -16 19 7 26 4 19 -8 -7 -12 14 -40 47 -64 70 -52 73 -80 19 -168 -32 -51
-40 -57 -40 -25 0 24 -7 31 -15 18 -18 -27 -179 -99 -263 -118 -34 -7 -62 -20
-62 -29 0 -9 -33 -12 -72 -7 -40 6 -68 2 -62 -7 5 -9 -21 -19 -60 -22 -39 -3
-81 -12 -93 -20 -13 -8 -50 -16 -83 -17 -115 -4 -132 -8 -121 -26 6 -10 -26
-8 -71 3 -61 16 -86 15 -97 -3 -13 -21 -175 -42 -391 -51 -44 -1 -89 -8 -100
-15 -11 -6 -62 -10 -113 -9 -52 2 -90 -2 -86 -9 11 -18 -98 -38 -111 -21 -14
19 -108 16 -122 -4 -22 -29 -178 -41 -178 -13 0 18 -7 19 -25 4 -14 -11 -52
-25 -85 -31 -33 -6 -100 -24 -150 -41 l-90 -29 124 -2 c115 -1 755 48 899 69
35 5 143 18 240 29 1149 132 1705 410 1247 624 -190 89 -302 118 -260 67z"/>
<path d="M5060 1220 c-20 -13 46 -16 200 -8 127 7 234 16 238 20 19 18 -410 6
-438 -12z"/>
</g>
</svg>
