<?xml version="1.0" standalone="no"?>
<!DOCTYPE svg PUBLIC "-//W3C//DTD SVG 20010904//EN"
 "http://www.w3.org/TR/2001/REC-SVG-20010904/DTD/svg10.dtd">
<svg version="1.0" xmlns="http://www.w3.org/2000/svg"
 width="300.000000pt" height="300.000000pt" viewBox="0 0 300.000000 300.000000"
 preserveAspectRatio="xMidYMid meet">
<metadata>
Created by potrace 1.10, written by Peter Selinger 2001-2011
</metadata>
<g transform="translate(0.000000,300.000000) scale(0.100000,-0.100000)"
fill="#000000" stroke="none">
<path d="M1370 2455 c-169 -48 -310 -182 -372 -357 -22 -62 -23 -75 -28 -588
l-5 -525 -22 -3 c-12 -2 -34 -17 -49 -35 -23 -27 -26 -38 -22 -84 l5 -53 -91
0 c-110 -1 -132 -12 -122 -62 15 -70 18 -170 7 -181 -19 -19 -13 -65 12 -81
24 -16 169 -21 322 -11 118 7 135 7 191 0 37 -5 59 -3 80 8 25 13 33 13 55 1
21 -10 118 -13 502 -11 463 2 477 3 492 22 27 35 29 64 8 94 -20 26 -20 27 -2
50 26 32 24 51 -13 99 -27 35 -38 42 -67 42 -22 0 -43 -8 -59 -22 -20 -20 -37
-23 -110 -26 -48 -2 -105 -3 -127 -2 -39 1 -62 1 -142 -1 -21 -1 -85 1 -143 3
-68 2 -118 -1 -142 -9 -31 -10 -43 -10 -73 3 -37 15 -82 12 -115 -8 -10 -6
-27 -4 -52 6 -40 17 -48 30 -23 39 8 3 194 6 414 7 220 0 406 3 414 6 22 8 37
50 37 102 0 55 -17 84 -60 102 l-30 12 0 486 c0 320 -4 508 -11 551 -32 184
-167 342 -351 413 -72 27 -232 34 -308 13z m294 -25 c166 -52 308 -207 344
-375 7 -30 13 -255 16 -565 2 -283 5 -516 5 -517 1 -2 10 -3 21 -3 12 0 32
-11 45 -25 33 -32 35 -100 4 -139 l-20 -26 -422 -2 c-413 -3 -422 -3 -425 -23
-2 -15 9 -26 44 -42 43 -21 48 -22 76 -7 21 11 43 14 72 9 22 -3 55 -6 71 -5
17 0 82 3 145 5 72 3 126 0 143 -7 21 -8 34 -8 52 2 14 8 37 10 62 6 21 -4 52
-7 68 -6 199 6 202 6 235 33 41 35 56 34 96 -6 39 -37 45 -80 14 -97 -11 -6
-20 -17 -20 -25 0 -8 9 -19 20 -25 30 -16 26 -64 -7 -90 -21 -17 -36 -20 -63
-16 -19 4 -44 6 -55 5 -11 0 -94 0 -185 0 -91 0 -174 0 -185 0 -63 -1 -314 -1
-335 1 -14 0 -42 -2 -63 -6 -27 -4 -50 -1 -78 12 -38 17 -42 17 -69 1 -35 -21
-62 -21 -119 -1 -41 14 -48 14 -82 -2 -25 -11 -50 -14 -76 -10 -21 3 -42 6
-48 5 -187 -9 -235 -7 -257 10 -21 17 -22 22 -10 53 14 41 16 164 2 173 -15 9
-12 42 6 59 11 12 35 16 89 16 103 0 122 -9 136 -65 12 -46 25 -55 47 -33 7 7
39 15 70 18 53 5 57 7 60 33 l3 27 -78 0 c-107 0 -123 12 -123 90 0 51 3 61
26 79 15 12 35 21 44 21 10 0 21 7 24 16 3 9 6 241 6 516 0 549 2 566 61 678
119 223 369 325 613 250z m-589 -1680 c0 -11 -9 -14 -32 -12 -17 2 -48 -4 -69
-13 -20 -8 -38 -14 -40 -13 -1 2 -6 16 -9 31 l-7 28 78 -3 c62 -2 79 -6 79
-18z"/>
<path d="M1349 2407 c-160 -55 -283 -192 -323 -362 -15 -61 -17 -134 -14 -586
l3 -517 -33 5 c-47 8 -72 -18 -72 -73 0 -79 -38 -74 594 -74 635 0 592 -6 588
79 -2 54 -22 75 -67 68 l-30 -5 3 515 c2 326 -1 536 -8 572 -13 71 -67 184
-114 238 -51 58 -146 119 -223 143 -91 28 -216 27 -304 -3z m293 -48 c145 -49
254 -166 292 -316 14 -53 16 -131 14 -565 l-3 -503 -42 -3 -43 -3 0 206 c0
146 4 211 12 225 25 40 -33 81 -62 45 -11 -13 -11 -21 -2 -36 8 -13 12 -84 12
-229 l0 -210 -55 0 -55 0 0 70 c0 62 3 73 25 92 23 20 25 29 25 98 0 42 5 81
11 87 6 6 9 21 7 34 -2 19 -9 24 -33 24 -24 0 -31 -5 -33 -24 -2 -13 1 -28 7
-34 6 -6 11 -41 11 -78 0 -62 -2 -69 -30 -92 -28 -24 -30 -30 -30 -101 l0 -76
-55 0 -55 0 0 103 0 103 40 39 c39 38 40 41 40 107 0 38 6 77 12 88 25 40 -33
81 -62 45 -11 -13 -11 -21 -2 -36 7 -10 12 -49 12 -87 0 -66 -1 -69 -41 -107
l-40 -40 3 -108 3 -107 -38 0 -38 0 3 145 3 144 -28 29 c-25 26 -27 35 -27
105 0 44 5 86 12 97 15 23 2 53 -24 58 -23 4 -51 -27 -41 -47 4 -9 9 -57 11
-107 3 -86 5 -93 33 -120 l29 -28 0 -138 0 -138 -40 0 -40 0 0 125 c0 83 4
132 12 145 16 25 1 54 -30 58 -31 5 -47 -32 -27 -60 11 -17 15 -51 15 -145 l0
-123 -35 0 -35 0 0 153 0 154 -45 49 c-40 43 -45 54 -45 94 0 25 5 51 11 57
14 14 3 49 -16 57 -34 13 -70 -33 -46 -57 6 -6 11 -33 11 -60 0 -44 5 -54 45
-99 l44 -49 3 -150 3 -150 -70 3 -70 3 0 525 c0 591 -2 572 77 690 104 157
320 230 500 169z m-252 -855 c0 -8 -5 -12 -10 -9 -6 4 -8 11 -5 16 9 14 15 11
15 -7z m460 -84 c0 -5 -4 -10 -10 -10 -5 0 -10 5 -10 10 0 6 5 10 10 10 6 0
10 -4 10 -10z m-90 -80 c0 -5 -4 -10 -10 -10 -5 0 -10 5 -10 10 0 6 5 10 10
10 6 0 10 -4 10 -10z m-430 -80 c0 -5 -5 -10 -11 -10 -5 0 -7 5 -4 10 3 6 8
10 11 10 2 0 4 -4 4 -10z m-252 -316 c2 -1 -1 -5 -7 -8 -5 -4 -15 4 -22 16
-12 22 -11 22 7 8 10 -8 20 -15 22 -16z m152 7 c0 -6 -4 -12 -8 -15 -5 -3 -9
1 -9 9 0 8 4 15 9 15 4 0 8 -4 8 -9z m320 -7 c0 -8 -4 -12 -10 -9 -5 3 -10 10
-10 16 0 5 5 9 10 9 6 0 10 -7 10 -16z m146 7 c-4 -5 0 -12 6 -14 8 -3 6 -6
-4 -6 -10 -1 -18 6 -18 14 0 8 5 15 11 15 5 0 8 -4 5 -9z m162 -9 c2 -7 -1
-12 -7 -12 -6 0 -11 5 -11 11 0 5 -5 7 -12 3 -7 -4 -8 -3 -4 5 9 14 28 10 34
-7z m99 3 c0 -8 -4 -15 -9 -15 -10 0 -11 14 -1 23 9 10 10 9 10 -8z m-512 -5
c-3 -5 -11 -10 -16 -10 -6 0 -7 5 -4 10 3 6 11 10 16 10 6 0 7 -4 4 -10z m104
-20 c275 1 505 -1 511 -5 17 -10 11 -45 -7 -46 -17 -1 -17 -2 0 -6 10 -3 16
-10 14 -16 -3 -9 -149 -13 -567 -15 -554 -2 -562 -2 -557 17 3 11 1 21 -4 23
-5 2 -6 13 -3 26 5 17 14 22 40 22 18 0 36 5 39 10 5 8 11 8 20 0 9 -7 169
-10 514 -10z"/>
<path d="M1425 2200 c-157 -34 -265 -152 -281 -307 -8 -78 0 -111 31 -123 19
-7 25 -17 25 -40 0 -16 5 -30 10 -30 6 0 10 16 10 36 0 21 4 33 10 29 6 -4 9
-16 8 -28 -2 -12 2 -24 7 -26 6 -2 9 10 7 28 -2 17 1 31 7 31 6 0 11 -16 11
-35 0 -19 5 -35 10 -35 6 0 10 16 10 35 0 19 5 35 10 35 6 0 10 -16 10 -35 0
-19 5 -35 10 -35 6 0 10 16 10 36 0 21 4 33 10 29 6 -4 9 -18 8 -32 -2 -14 3
-28 10 -30 8 -3 12 7 12 31 0 27 3 34 15 30 8 -4 15 -14 15 -23 0 -34 43 -61
96 -61 41 0 55 -5 75 -26 75 -81 169 -71 261 28 l48 52 0 108 c0 125 -17 183
-75 253 -55 68 -139 105 -251 110 -49 2 -107 0 -129 -5z m224 -30 c20 -5 56
-22 79 -37 l43 -28 -38 -6 -38 -6 40 -2 c45 -2 55 -7 73 -38 12 -23 11 -23
-40 -23 -67 0 -56 -11 14 -13 49 -2 53 -4 51 -25 -2 -12 2 -22 8 -22 6 0 8 -9
4 -20 -4 -11 -2 -20 4 -20 6 0 11 -4 11 -10 0 -5 -16 -10 -35 -10 -19 0 -35
-5 -35 -11 0 -5 5 -7 11 -4 5 4 20 4 32 1 17 -4 23 -14 25 -36 l2 -30 -65 0
c-68 0 -105 20 -105 56 0 8 -5 12 -10 9 -7 -4 -6 -14 2 -28 22 -41 37 -48 105
-50 38 -1 67 -6 66 -11 -1 -6 -10 -11 -19 -12 -26 -4 -26 -11 1 -18 32 -8 32
-24 -2 -63 -28 -31 -29 -32 -135 -35 l-108 -4 0 28 c0 17 5 28 14 28 17 0 32
18 40 50 7 23 4 22 -23 -10 l-30 -35 -1 32 c0 17 -4 35 -10 38 -6 4 -10 -18
-10 -59 0 -61 -9 -81 -25 -56 -3 6 -24 10 -47 10 -28 0 -47 7 -64 23 -40 38
-31 47 46 47 40 0 70 4 70 10 0 6 -10 10 -22 11 -13 0 -35 2 -50 4 -15 2 -31
-1 -34 -7 -4 -6 -10 -5 -16 3 -8 12 -10 12 -15 0 -4 -10 -9 -8 -19 10 -10 18
-13 20 -14 7 0 -23 -20 -34 -31 -17 -5 8 -9 9 -9 3 0 -7 -28 -11 -73 -12 -70
-1 -74 0 -90 27 -24 41 -22 61 7 61 25 0 56 -23 56 -42 0 -6 3 -9 6 -5 16 15
-10 47 -46 57 -55 15 -43 37 24 45 35 5 63 15 82 32 27 23 34 24 111 19 92 -6
123 -20 123 -53 0 -13 5 -23 11 -23 6 0 8 7 5 16 -3 9 -6 21 -6 28 0 27 -57
46 -138 46 -78 0 -80 1 -75 23 3 18 1 16 -13 -8 -27 -46 -40 -56 -94 -64 -47
-8 -50 -7 -50 13 0 30 18 46 55 47 19 1 23 3 10 6 -47 10 -49 13 -27 29 12 8
22 21 22 27 1 15 93 87 112 87 8 0 18 4 24 9 25 26 194 33 273 11z m86 -528
c-33 -21 -87 -19 -105 3 -8 10 5 13 62 14 l73 1 -30 -18z"/>
<path d="M1558 2158 c-16 -5 -28 -14 -28 -19 0 -15 27 -10 51 11 26 21 19 24
-23 8z"/>
<path d="M1430 2152 c0 -4 6 -20 13 -35 13 -29 34 -38 22 -9 -4 9 -10 25 -12
35 -5 17 -23 24 -23 9z"/>
<path d="M1377 2144 c-3 -4 1 -13 11 -20 21 -16 32 -17 32 -4 0 6 -6 10 -14
10 -8 0 -16 5 -18 11 -2 5 -7 7 -11 3z"/>
<path d="M1470 2130 c0 -5 5 -10 11 -10 5 0 7 5 4 10 -3 6 -8 10 -11 10 -2 0
-4 -4 -4 -10z"/>
<path d="M1505 2130 c-3 -5 -1 -10 4 -10 6 0 11 5 11 10 0 6 -2 10 -4 10 -3 0
-8 -4 -11 -10z"/>
<path d="M1335 2090 c-3 -4 6 -10 20 -12 14 -3 25 -2 25 2 0 11 -39 20 -45 10z"/>
<path d="M1637 2079 c-21 -16 -31 -18 -47 -9 -12 6 -20 7 -20 1 0 -5 9 -13 20
-16 16 -5 18 -10 10 -25 -6 -10 -10 -25 -10 -32 0 -7 8 3 19 22 10 19 33 45
51 58 18 12 26 22 18 22 -8 0 -27 -9 -41 -21z"/>
<path d="M1488 2083 c7 -3 16 -2 19 1 4 3 -2 6 -13 5 -11 0 -14 -3 -6 -6z"/>
<path d="M1390 2056 c0 -9 5 -16 10 -16 6 0 10 4 10 9 0 6 -4 13 -10 16 -5 3
-10 -1 -10 -9z"/>
<path d="M1400 2020 c0 -5 5 -10 10 -10 6 0 10 5 10 10 0 6 -4 10 -10 10 -5 0
-10 -4 -10 -10z"/>
<path d="M1660 2001 c0 -21 -33 -41 -66 -41 -20 0 -33 -4 -29 -10 6 -10 58 -3
86 11 18 9 33 49 18 49 -5 0 -9 -4 -9 -9z"/>
<path d="M1780 1985 c-7 -8 -22 -16 -34 -16 -18 -1 -19 -2 -2 -6 20 -5 66 15
66 29 0 13 -16 9 -30 -7z"/>
<path d="M1339 1916 c-10 -10 2 -54 17 -67 15 -13 19 1 5 17 -5 5 -11 20 -13
32 -1 13 -6 21 -9 18z"/>
<path d="M1421 1897 c-14 -6 -28 -24 -32 -40 -4 -16 -3 -25 2 -21 5 3 9 12 9
20 0 8 5 14 11 14 5 0 7 5 4 10 -3 6 3 10 14 10 12 0 21 5 21 10 0 12 0 12
-29 -3z"/>
<path d="M1506 1858 c3 -31 31 -64 43 -52 3 3 -2 10 -12 15 -10 6 -17 22 -17
39 0 17 -4 30 -9 30 -5 0 -8 -15 -5 -32z"/>
<path d="M1687 1793 c-38 -6 -24 -23 19 -23 23 0 34 4 32 12 -5 14 -14 16 -51
11z"/>
<path d="M1750 1792 c0 -11 30 -37 53 -45 27 -10 20 7 -13 31 -32 24 -40 27
-40 14z"/>
<path d="M1901 1344 c0 -11 3 -14 6 -6 3 7 2 16 -1 19 -3 4 -6 -2 -5 -13z"/>
<path d="M1173 863 c9 -2 25 -2 35 0 9 3 1 5 -18 5 -19 0 -27 -2 -17 -5z"/>
<path d="M1303 863 c9 -2 23 -2 30 0 6 3 -1 5 -18 5 -16 0 -22 -2 -12 -5z"/>
<path d="M1400 866 c0 -2 15 -6 34 -8 19 -2 32 0 30 4 -5 8 -64 12 -64 4z"/>
<path d="M1488 863 c7 -3 16 -2 19 1 4 3 -2 6 -13 5 -11 0 -14 -3 -6 -6z"/>
<path d="M1538 863 c7 -3 16 -2 19 1 4 3 -2 6 -13 5 -11 0 -14 -3 -6 -6z"/>
<path d="M1677 863 c-3 -5 10 -8 28 -8 18 0 31 3 28 8 -2 4 -15 7 -28 7 -13 0
-26 -3 -28 -7z"/>
<path d="M1867 863 c18 -2 50 -2 70 0 21 2 7 4 -32 4 -38 0 -55 -2 -38 -4z"/>
<path d="M1988 863 c6 -2 18 -2 25 0 6 3 1 5 -13 5 -14 0 -19 -2 -12 -5z"/>
<path d="M698 763 c-7 -9 -7 -17 1 -27 18 -21 19 -169 1 -191 -13 -15 -12 -19
5 -31 25 -19 79 -18 96 2 8 10 9 18 2 22 -5 4 -13 24 -16 45 -4 28 -2 37 8 37
8 0 17 -12 21 -27 18 -81 26 -93 64 -93 39 0 58 25 37 48 -16 17 -17 21 -17
47 0 8 -9 23 -20 33 -18 17 -19 20 -5 32 20 17 20 84 -2 101 -22 19 -160 20
-175 2z m65 -53 c-4 -25 -1 -46 7 -55 9 -11 10 -18 1 -29 -6 -7 -9 -31 -6 -55
4 -35 2 -41 -12 -41 -16 0 -18 11 -18 110 0 96 2 110 17 110 13 0 15 -7 11
-40z m94 24 c14 -13 14 -21 5 -48 -16 -42 -15 -56 3 -76 8 -9 16 -25 18 -36 1
-10 6 -25 10 -31 6 -9 2 -13 -13 -13 -13 0 -24 9 -30 28 -5 15 -16 40 -25 55
-13 25 -13 30 0 43 18 18 20 65 3 82 -9 9 -9 12 1 12 7 0 20 -7 28 -16z m-41
-48 c-10 -40 -37 -34 -32 7 3 17 5 36 5 42 1 5 8 2 17 -7 11 -11 14 -25 10
-42z"/>
<path d="M1154 766 c-38 -17 -50 -34 -35 -49 6 -6 11 -49 11 -105 0 -73 3 -93
13 -89 7 3 21 -1 32 -9 30 -22 64 -16 96 15 25 25 29 37 29 84 0 40 -5 58 -18
70 -21 19 -57 22 -67 7 -14 -22 -20 -7 -17 40 4 54 2 56 -44 36z m17 -33 c1
-5 3 -19 4 -32 1 -13 8 -27 16 -31 10 -7 10 -11 -1 -25 -7 -8 -13 -34 -13 -56
0 -22 -4 -42 -9 -45 -10 -6 -9 -10 -12 104 -1 50 1 92 6 92 4 0 9 -3 9 -7z
m103 -79 c3 -9 3 -21 -1 -26 -3 -7 -1 -8 5 -4 13 8 15 -4 6 -28 -9 -23 -24
-19 -24 6 0 12 -10 32 -22 45 l-21 23 25 0 c14 0 29 -7 32 -16z m-39 -44 c8
-37 -2 -70 -21 -70 -10 0 -14 13 -14 50 0 57 24 71 35 20z"/>
<path d="M2208 722 c-37 -27 -51 -62 -24 -62 10 0 12 -12 9 -47 -9 -90 35
-136 92 -99 30 20 35 57 6 49 -22 -5 -30 14 -27 62 2 22 8 31 24 33 30 5 29
40 0 44 -17 2 -22 9 -20 26 4 29 -14 28 -60 -6z m49 -38 c2 -7 -3 -18 -11 -26
-9 -10 -11 -20 -5 -29 5 -8 9 -28 9 -45 0 -16 5 -35 11 -41 7 -7 6 -12 -5 -16
-24 -9 -37 17 -38 75 0 29 -4 60 -9 69 -4 9 -5 19 -2 23 10 10 46 3 50 -10z"/>
<path d="M967 680 c-45 -35 -48 -119 -7 -160 63 -63 175 34 142 121 -23 60
-85 78 -135 39z m108 -46 c0 -11 3 -21 7 -24 3 -3 0 -18 -7 -35 l-13 -30 -2
40 c-1 22 -2 46 -1 53 1 6 -2 12 -7 12 -6 0 -13 7 -16 16 -6 15 -4 15 16 2 13
-9 23 -24 23 -34z m-38 -38 c5 -37 3 -46 -10 -46 -17 0 -35 79 -22 100 12 20
27 -5 32 -54z m-54 2 c2 -20 9 -44 16 -52 11 -14 11 -16 -4 -16 -9 0 -19 9
-22 20 -3 11 -9 20 -14 20 -4 0 -7 9 -6 20 1 11 5 20 9 20 4 0 7 3 7 8 -2 13
1 25 5 21 3 -3 7 -21 9 -41z"/>
<path d="M1345 675 c-21 -20 -25 -34 -25 -79 0 -47 4 -57 26 -75 32 -25 55
-26 94 -6 51 26 65 86 35 144 -25 49 -90 57 -130 16z m109 -27 c18 -25 21 -74
6 -83 -9 -5 -15 15 -11 38 1 4 -6 21 -14 37 -18 35 -3 40 19 8z m-40 -10 c10
-41 7 -90 -6 -86 -15 5 -32 72 -24 93 8 22 23 18 30 -7z m-31 -90 c16 -10 3
-20 -16 -12 -23 8 -36 54 -24 84 9 24 10 23 19 -20 6 -25 15 -48 21 -52z"/>
<path d="M1534 690 c-30 -12 -38 -28 -24 -45 7 -9 10 -30 7 -52 -13 -84 -13
-87 6 -91 10 -2 30 -1 43 2 23 6 25 10 19 50 -8 48 0 86 17 86 6 0 9 -25 7
-67 -4 -73 3 -82 56 -69 22 6 23 11 22 67 -1 44 2 63 11 67 11 3 13 -10 11
-59 -2 -49 1 -65 14 -73 22 -14 74 5 67 25 -2 8 -6 43 -8 79 -2 36 -8 71 -14
78 -15 17 -48 15 -70 -4 -16 -16 -18 -16 -24 0 -8 20 -47 21 -64 1 -7 -8 -16
-15 -21 -15 -5 0 -9 7 -9 15 0 17 -14 18 -46 5z m223 -93 c2 -49 -1 -67 -7
-57 -5 8 -10 27 -10 42 0 15 -5 39 -10 53 -11 30 -6 47 13 39 8 -3 13 -30 14
-77z m-187 55 c0 -10 -3 -22 -7 -25 -9 -10 -10 -68 -1 -74 14 -8 8 -23 -9 -23
-15 0 -18 9 -16 63 2 81 1 77 18 77 8 0 15 -8 15 -18z m95 -54 c0 -58 -3 -68
-17 -68 -10 0 -18 5 -18 11 0 5 4 8 9 5 5 -4 6 9 1 28 -5 22 -3 39 4 47 8 9 8
10 0 6 -7 -4 -15 0 -18 9 -11 28 -7 35 16 32 21 -3 23 -8 23 -70z"/>
<path d="M1829 674 c-19 -20 -24 -36 -24 -76 0 -42 4 -53 28 -74 15 -13 38
-24 50 -24 31 0 67 27 67 51 0 22 -4 23 -31 8 -16 -8 -25 -7 -40 7 -25 22 -19
27 34 28 41 1 42 2 40 34 -3 70 -76 97 -124 46z m71 -30 c0 -14 -21 -19 -33
-7 -9 9 13 34 24 27 5 -3 9 -12 9 -20z m-45 -24 c4 -6 2 -17 -4 -24 -8 -10 -6
-20 11 -41 13 -17 16 -26 8 -23 -25 8 -50 52 -44 76 7 24 19 29 29 12z"/>
<path d="M1998 689 c-26 -10 -27 -11 -21 -78 4 -47 2 -70 -6 -75 -18 -11 6
-36 34 -36 49 0 53 7 47 76 -4 53 -2 64 11 64 27 0 37 -63 16 -102 -13 -24 1
-38 41 -38 41 0 57 16 43 40 -7 11 -13 43 -13 71 0 27 -5 59 -10 70 -13 23
-47 25 -72 2 -17 -15 -18 -15 -18 0 0 19 -12 20 -52 6z m126 -34 c8 -21 -23
-26 -33 -6 -6 10 -8 21 -5 24 9 8 32 -3 38 -18z m-92 -11 c-2 -10 -3 -40 -2
-65 1 -35 -3 -46 -15 -46 -12 0 -14 9 -11 39 3 22 1 50 -4 63 -6 16 -5 25 3
29 20 8 32 0 29 -20z m95 -46 c-2 -18 0 -41 5 -50 7 -14 4 -18 -9 -18 -15 0
-17 7 -15 50 2 27 8 50 13 50 5 0 7 -15 6 -32z"/>
</g>
</svg>
